<svg width="48" height="48" viewBox="0 0 48 48" fill="none" xmlns="http://www.w3.org/2000/svg">
<circle cx="24" cy="24" r="24" fill="#FA6400" fill-opacity="0.05"/>
<circle cx="24" cy="24" r="23.6571" stroke="#FA6400" stroke-opacity="0.2" stroke-width="0.685714"/>
<path d="M19.0007 24.834C16.7007 24.834 14.834 26.6923 14.834 29.0007C14.834 31.309 16.7007 33.1673 19.0007 33.1673C21.3007 33.1673 23.1673 31.3007 23.1673 29.0007C23.1673 26.7007 21.309 24.834 19.0007 24.834ZM17.3007 27.3007H19.0007C19.3173 27.3007 19.5673 27.559 19.5673 27.8673C19.5673 28.1757 19.3173 28.434 19.0007 28.434H17.3007C16.984 28.434 16.734 28.1757 16.734 27.8673C16.734 27.559 16.984 27.3007 17.3007 27.3007ZM20.7007 30.7007H17.3007C16.984 30.7007 16.734 30.4423 16.734 30.134C16.734 29.8257 16.9923 29.5673 17.3007 29.5673H20.709C21.0257 29.5673 21.2757 29.8257 21.2757 30.134C21.2757 30.4423 21.0173 30.7007 20.7007 30.7007Z" fill="#FA6400"/>
<path d="M28.166 16.5H19.8327C17.3327 16.5 15.666 17.75 15.666 20.6667V23.2833C15.666 23.8917 16.291 24.275 16.8493 24.0333C17.766 23.6333 18.8077 23.4833 19.8993 23.6583C22.0827 24.0167 23.866 25.7417 24.3077 27.9083C24.4327 28.5417 24.4493 29.1583 24.366 29.75C24.2993 30.2417 24.6993 30.675 25.191 30.675H28.166C30.666 30.675 32.3327 29.425 32.3327 26.5083V20.6667C32.3327 17.75 30.666 16.5 28.166 16.5ZM28.5577 21.1583L25.9493 23.2417C25.3993 23.6833 24.6993 23.9 23.9993 23.9C23.2993 23.9 22.591 23.6833 22.0493 23.2417L19.441 21.1583C19.1743 20.9417 19.1327 20.5417 19.341 20.275C19.5577 20.0083 19.9493 19.9583 20.216 20.175L22.8243 22.2583C23.4577 22.7667 24.5327 22.7667 25.166 22.2583L27.7743 20.175C28.041 19.9583 28.441 20 28.6493 20.275C28.866 20.5417 28.8243 20.9417 28.5577 21.1583Z" fill="#FA6400"/>
</svg>
