<svg width="53" height="53" viewBox="0 0 53 53" fill="none" xmlns="http://www.w3.org/2000/svg">
<g id="material-symbols-light:add-card">
<path id="Vector" d="M9.16667 24.4082H43.8333V19.2429H9.16667V24.4082ZM42.75 46.7422V40.2422H36.25V38.0755H42.75V31.5755H44.9167V38.0755H51.4167V40.2422H44.9167V46.7422H42.75ZM10.5013 41.3255C9.50322 41.3255 8.6705 40.9919 8.00317 40.3245C7.33583 39.6572 7.00144 38.8237 7 37.8242V14.4935C7 13.4954 7.33439 12.6627 8.00317 11.9954C8.67194 11.328 9.50394 10.9936 10.4992 10.9922H42.5008C43.4975 10.9922 44.3295 11.3266 44.9968 11.9954C45.6642 12.6641 45.9986 13.4969 46 14.4935V27.2422H42.75C39.7528 27.2422 37.1983 28.2988 35.0865 30.412C32.9747 32.5252 31.9181 35.0797 31.9167 38.0755V41.3255H10.5013Z" fill="#737373"/>
</g>
</svg>
