<svg width="15" height="15" viewBox="0 0 15 15" fill="none" xmlns="http://www.w3.org/2000/svg">
<g id="trash-01" clip-path="url(#clip0_370_12438)">
<path id="Icon" d="M9.86641 3.73301V3.25301C9.86641 2.58094 9.86641 2.24491 9.73561 1.98822C9.62057 1.76242 9.43699 1.57885 9.21119 1.4638C8.9545 1.33301 8.61847 1.33301 7.94641 1.33301H6.98641C6.31434 1.33301 5.97831 1.33301 5.72162 1.4638C5.49582 1.57885 5.31225 1.76242 5.1972 1.98822C5.06641 2.24491 5.06641 2.58094 5.06641 3.25301V3.73301M6.26641 7.03301V10.033M8.66641 7.03301V10.033M2.06641 3.73301H12.8664M11.6664 3.73301V10.453C11.6664 11.4611 11.6664 11.9652 11.4702 12.3502C11.2976 12.6889 11.0223 12.9642 10.6836 13.1368C10.2985 13.333 9.7945 13.333 8.78641 13.333H6.14641C5.13831 13.333 4.63426 13.333 4.24922 13.1368C3.91053 12.9642 3.63517 12.6889 3.46259 12.3502C3.26641 11.9652 3.26641 11.4611 3.26641 10.453V3.73301" stroke="#F04438" stroke-width="1.2" stroke-linecap="round" stroke-linejoin="round"/>
</g>
<defs>
<clipPath id="clip0_370_12438">
<rect width="14.4" height="14.4" fill="white" transform="translate(0.266602 0.132812)"/>
</clipPath>
</defs>
</svg>
