<svg width="48" height="48" viewBox="0 0 48 48" fill="none" xmlns="http://www.w3.org/2000/svg">
<circle cx="24" cy="24" r="24" fill="#FA6400" fill-opacity="0.05"/>
<circle cx="24" cy="24" r="23.6571" stroke="#FA6400" stroke-opacity="0.2" stroke-width="0.685714"/>
<path d="M23.9507 15.8419L21.9423 20.5169H19.934C19.6007 20.5169 19.2757 20.5419 18.959 20.6085L19.7923 18.6085L19.8257 18.5335L19.8757 18.4002C19.9007 18.3419 19.9173 18.2919 19.9423 18.2502C20.909 16.0085 21.9923 15.3085 23.9507 15.8419Z" fill="#FA6400"/>
<path d="M29.6079 20.7413L29.5913 20.7329C29.0913 20.5913 28.5829 20.5163 28.0663 20.5163H22.8496L24.7246 16.1579L24.7496 16.0996C24.8663 16.1413 24.9913 16.1996 25.1163 16.2413L26.9579 17.0163C27.9829 17.4413 28.6996 17.8829 29.1413 18.4163C29.2163 18.5163 29.2829 18.6079 29.3496 18.7163C29.4246 18.8329 29.4829 18.9496 29.5163 19.0746C29.5496 19.1496 29.5746 19.2163 29.5913 19.2913C29.7163 19.7163 29.7246 20.1996 29.6079 20.7413Z" fill="#FA6400"/>
<path d="M29.2422 21.9342C28.8672 21.8259 28.4755 21.7676 28.0672 21.7676H19.9339C19.3672 21.7676 18.8339 21.8759 18.3339 22.0926C16.8839 22.7176 15.8672 24.1592 15.8672 25.8342V27.4592C15.8672 27.6592 15.8839 27.8509 15.9089 28.0509C16.0922 30.7009 17.5089 32.1176 20.1589 32.2926C20.3505 32.3176 20.5422 32.3342 20.7505 32.3342H27.2505C30.3339 32.3342 31.9589 30.8676 32.1172 27.9509C32.1255 27.7926 32.1339 27.6259 32.1339 27.4592V25.8342C32.1339 23.9926 30.9089 22.4426 29.2422 21.9342ZM26.0839 27.4926H24.6255V29.0009C24.6255 29.3426 24.3422 29.6259 24.0005 29.6259C23.6589 29.6259 23.3755 29.3426 23.3755 29.0009V27.4926H21.9172C21.5755 27.4926 21.2922 27.2176 21.2922 26.8676C21.2922 26.5259 21.5755 26.2426 21.9172 26.2426H23.3755V24.8342C23.3755 24.4926 23.6589 24.2092 24.0005 24.2092C24.3422 24.2092 24.6255 24.4926 24.6255 24.8342V26.2426H26.0839C26.4255 26.2426 26.7089 26.5259 26.7089 26.8676C26.7089 27.2176 26.4255 27.4926 26.0839 27.4926Z" fill="#FA6400"/>
</svg>
