<svg width="48" height="48" viewBox="0 0 48 48" fill="none" xmlns="http://www.w3.org/2000/svg">
<circle cx="24" cy="24" r="24" fill="#FA6400" fill-opacity="0.05"/>
<circle cx="24" cy="24" r="23.6571" stroke="#FA6400" stroke-opacity="0.2" stroke-width="0.685714"/>
<path d="M28.1665 15.667H19.8332C17.5332 15.667 15.6665 17.5253 15.6665 19.817V24.8003V25.6337C15.6665 27.9253 17.5332 29.7837 19.8332 29.7837H21.0832C21.3082 29.7837 21.6082 29.9337 21.7498 30.117L22.9998 31.7753C23.5498 32.5087 24.4498 32.5087 24.9998 31.7753L26.2498 30.117C26.4082 29.9087 26.6582 29.7837 26.9165 29.7837H28.1665C30.4665 29.7837 32.3332 27.9253 32.3332 25.6337V19.817C32.3332 17.5253 30.4665 15.667 28.1665 15.667ZM20.6665 24.0003C20.1998 24.0003 19.8332 23.6253 19.8332 23.167C19.8332 22.7087 20.2082 22.3337 20.6665 22.3337C21.1248 22.3337 21.4998 22.7087 21.4998 23.167C21.4998 23.6253 21.1332 24.0003 20.6665 24.0003ZM23.9998 24.0003C23.5332 24.0003 23.1665 23.6253 23.1665 23.167C23.1665 22.7087 23.5415 22.3337 23.9998 22.3337C24.4582 22.3337 24.8332 22.7087 24.8332 23.167C24.8332 23.6253 24.4665 24.0003 23.9998 24.0003ZM27.3332 24.0003C26.8665 24.0003 26.4998 23.6253 26.4998 23.167C26.4998 22.7087 26.8748 22.3337 27.3332 22.3337C27.7915 22.3337 28.1665 22.7087 28.1665 23.167C28.1665 23.6253 27.7998 24.0003 27.3332 24.0003Z" fill="#FA6400"/>
</svg>
