<svg width="23" height="24" viewBox="0 0 23 24" fill="none" xmlns="http://www.w3.org/2000/svg">
<rect x="0.00878906" y="0.571289" width="22.8571" height="22.8571" rx="11.4286" fill="#FA6400" fill-opacity="0.1"/>
<path d="M13.4376 16.2853H9.02394C8.73545 16.2853 8.59121 16.2853 8.52442 16.2282C8.46646 16.1788 8.43571 16.1045 8.44169 16.0285C8.44858 15.941 8.55057 15.839 8.75456 15.635L12.8036 11.5859C12.9922 11.3974 13.0865 11.3031 13.1952 11.2678C13.2908 11.2367 13.3938 11.2367 13.4895 11.2678C13.5982 11.3031 13.6925 11.3974 13.8811 11.5859L15.7233 13.4282V13.9996M13.4376 16.2853C14.2376 16.2853 14.6377 16.2853 14.9433 16.1296C15.2121 15.9926 15.4306 15.7741 15.5676 15.5053C15.7233 15.1997 15.7233 14.7997 15.7233 13.9996M13.4376 16.2853H9.43757C8.63749 16.2853 8.23746 16.2853 7.93187 16.1296C7.66307 15.9926 7.44452 15.7741 7.30756 15.5053C7.15186 15.1997 7.15186 14.7997 7.15186 13.9996V9.99958C7.15186 9.19951 7.15186 8.79947 7.30756 8.49388C7.44452 8.22508 7.66307 8.00653 7.93187 7.86957C8.23746 7.71387 8.63749 7.71387 9.43757 7.71387H13.4376C14.2376 7.71387 14.6377 7.71387 14.9433 7.86957C15.2121 8.00653 15.4306 8.22508 15.5676 8.49388C15.7233 8.79947 15.7233 9.19951 15.7233 9.99958V13.9996M10.7233 10.3329C10.7233 10.8589 10.2969 11.2853 9.7709 11.2853C9.24492 11.2853 8.81852 10.8589 8.81852 10.3329C8.81852 9.80693 9.24492 9.38053 9.7709 9.38053C10.2969 9.38053 10.7233 9.80693 10.7233 10.3329Z" stroke="#FA6400" stroke-width="0.952381" stroke-linecap="round" stroke-linejoin="round"/>
</svg>
