<svg width="48" height="48" viewBox="0 0 48 48" fill="none" xmlns="http://www.w3.org/2000/svg">
<circle cx="24" cy="24" r="24" fill="#FA6400" fill-opacity="0.05"/>
<circle cx="24" cy="24" r="23.6571" stroke="#FA6400" stroke-opacity="0.2" stroke-width="0.685714"/>
<path d="M19.8327 15.666H18.9993C16.4993 15.666 15.666 17.1577 15.666 18.9993V19.8327V31.4993C15.666 32.191 16.4493 32.5827 16.9993 32.166L18.4243 31.0993C18.7577 30.8493 19.2243 30.8827 19.5243 31.1827L20.9077 32.5743C21.2327 32.8993 21.766 32.8993 22.091 32.5743L23.491 31.1743C23.7827 30.8827 24.2493 30.8493 24.5743 31.0993L25.9993 32.166C26.5493 32.5743 27.3327 32.1827 27.3327 31.4993V17.3327C27.3327 16.416 28.0827 15.666 28.9993 15.666H19.8327ZM23.3743 25.4577H19.6243C19.2827 25.4577 18.9993 25.1743 18.9993 24.8327C18.9993 24.491 19.2827 24.2077 19.6243 24.2077H23.3743C23.716 24.2077 23.9993 24.491 23.9993 24.8327C23.9993 25.1743 23.716 25.4577 23.3743 25.4577ZM23.9993 22.1243H18.9993C18.6577 22.1243 18.3743 21.841 18.3743 21.4993C18.3743 21.1577 18.6577 20.8743 18.9993 20.8743H23.9993C24.341 20.8743 24.6243 21.1577 24.6243 21.4993C24.6243 21.841 24.341 22.1243 23.9993 22.1243Z" fill="#FA6400"/>
<path d="M29.009 15.666V16.916C29.559 16.916 30.084 17.141 30.4673 17.516C30.8673 17.9243 31.084 18.4493 31.084 18.9993V21.016C31.084 21.6327 30.809 21.916 30.184 21.916H28.584V17.341C28.584 17.1077 28.7757 16.916 29.009 16.916V15.666ZM29.009 15.666C28.084 15.666 27.334 16.416 27.334 17.341V23.166H30.184C31.5007 23.166 32.334 22.3327 32.334 21.016V18.9993C32.334 18.0827 31.959 17.2493 31.359 16.641C30.7507 16.041 29.9257 15.6743 29.009 15.666C29.0173 15.666 29.009 15.666 29.009 15.666Z" fill="#FA6400"/>
</svg>
