<svg width="48" height="48" viewBox="0 0 48 48" fill="none" xmlns="http://www.w3.org/2000/svg">
<circle cx="24" cy="24.0005" r="24" fill="#FA6400" fill-opacity="0.05"/>
<circle cx="24" cy="24.0005" r="23.6571" stroke="#FA6400" stroke-opacity="0.2" stroke-width="0.685714"/>
<path d="M31.5749 19.8163C30.8665 19.0329 29.6832 18.6413 27.9665 18.6413H27.7665V18.6079C27.7665 17.2079 27.7665 15.4746 24.6332 15.4746H23.3665C20.2332 15.4746 20.2332 17.2163 20.2332 18.6079V18.6496H20.0332C18.3082 18.6496 17.1332 19.0413 16.4249 19.8246C15.5999 20.7413 15.6249 21.9746 15.7082 22.8163L15.7165 22.8746L15.7811 23.5523C15.793 23.6772 15.8602 23.7899 15.9651 23.8585C16.1649 23.9893 16.4994 24.2049 16.6999 24.3163C16.8165 24.3913 16.9415 24.4579 17.0665 24.5246C18.4915 25.3079 20.0582 25.8329 21.6499 26.0913C21.7249 26.8746 22.0665 27.7913 23.8915 27.7913C25.7165 27.7913 26.0749 26.8829 26.1332 26.0746C27.8332 25.7996 29.4749 25.2079 30.9582 24.3413C31.0082 24.3163 31.0415 24.2913 31.0832 24.2663C31.4138 24.0794 31.7568 23.8492 32.0694 23.6236C32.1636 23.5557 32.2238 23.4507 32.2367 23.3352L32.2499 23.2163L32.2915 22.8246C32.2999 22.7746 32.2999 22.7329 32.3082 22.6746C32.3749 21.8329 32.3582 20.6829 31.5749 19.8163ZM24.9082 25.5246C24.9082 26.4079 24.9082 26.5413 23.8832 26.5413C22.8582 26.5413 22.8582 26.3829 22.8582 25.5329V24.4829H24.9082V25.5246ZM21.4249 18.6413V18.6079C21.4249 17.1913 21.4249 16.6663 23.3665 16.6663H24.6332C26.5749 16.6663 26.5749 17.1996 26.5749 18.6079V18.6496H21.4249V18.6413Z" fill="#FA6400"/>
<path d="M31.3948 25.4451C31.6894 25.3049 32.0288 25.5384 31.9993 25.8634L31.7002 29.1583C31.5252 30.8249 30.8419 32.5249 27.1752 32.5249H20.8252C17.1585 32.5249 16.4752 30.8249 16.3002 29.1666L16.0163 26.0434C15.9871 25.7222 16.3187 25.4889 16.6126 25.6218C17.5621 26.0514 19.3147 26.8136 20.3973 27.0972C20.5343 27.133 20.645 27.231 20.705 27.3592C21.2108 28.441 22.3078 29.0166 23.8919 29.0166C25.4603 29.0166 26.5712 28.4188 27.0786 27.3344C27.1387 27.2061 27.2495 27.1081 27.3865 27.0721C28.5362 26.7696 30.4017 25.9176 31.3948 25.4451Z" fill="#FA6400"/>
</svg>
