<svg width="48" height="48" viewBox="0 0 48 48" fill="none" xmlns="http://www.w3.org/2000/svg">
<circle cx="24" cy="24" r="24" fill="#FA6400" fill-opacity="0.05"/>
<circle cx="24" cy="24" r="23.6571" stroke="#FA6400" stroke-opacity="0.2" stroke-width="0.685714"/>
<path d="M32.3333 26.5C32.3333 29.725 29.725 32.3333 26.5 32.3333L27.375 30.875" stroke="#FA6400" stroke-width="1.25" stroke-linecap="round" stroke-linejoin="round"/>
<path d="M15.666 21.4993C15.666 18.2743 18.2743 15.666 21.4993 15.666L20.6243 17.1243" stroke="#FA6400" stroke-width="1.25" stroke-linecap="round" stroke-linejoin="round"/>
<path d="M32.3333 17.4993V17.591C32.3333 17.8243 32.15 18.0077 31.9167 18.0077H24.4167C24.1833 18.0077 24 17.8243 24 17.591V17.4993C24 16.0327 24.3667 15.666 25.85 15.666H30.4833C31.9667 15.666 32.3333 16.0327 32.3333 17.4993Z" fill="#FA6400"/>
<path d="M24.4167 18.8418C24.1833 18.8418 24 19.0251 24 19.2585V20.0918V20.9168C24 22.3835 24.3667 22.7501 25.85 22.7501H30.4833C31.9667 22.7501 32.3333 22.3835 32.3333 20.9168V20.0918V19.2585C32.3333 19.0251 32.15 18.8418 31.9167 18.8418H24.4167Z" fill="#FA6400"/>
<path d="M23.9993 27.0833V27.175C23.9993 27.4083 23.816 27.5917 23.5827 27.5917H16.0827C15.8493 27.5917 15.666 27.4083 15.666 27.175V27.0833C15.666 25.6167 16.0327 25.25 17.516 25.25H22.1493C23.6327 25.25 23.9993 25.6167 23.9993 27.0833Z" fill="#FA6400"/>
<path d="M16.0827 28.4258C15.8493 28.4258 15.666 28.6091 15.666 28.8424V29.6758V30.5008C15.666 31.9674 16.0327 32.3341 17.516 32.3341H22.1493C23.6327 32.3341 23.9993 31.9674 23.9993 30.5008V29.6758V28.8424C23.9993 28.6091 23.816 28.4258 23.5827 28.4258H16.0827Z" fill="#FA6400"/>
</svg>
