<svg width="48" height="48" viewBox="0 0 48 48" fill="none" xmlns="http://www.w3.org/2000/svg">
<circle cx="24" cy="24" r="24" fill="#FA6400" fill-opacity="0.05"/>
<circle cx="24" cy="24" r="23.6571" stroke="#FA6400" stroke-opacity="0.2" stroke-width="0.685714"/>
<g clip-path="url(#clip0_19_12256)">
<path d="M34 23.7424C34 29.1231 29.6047 33.4849 24.1818 33.4849C22.4602 33.4849 20.8429 33.0449 19.4358 32.2727L14 34L15.7722 28.7729C14.8782 27.3049 14.3633 25.5831 14.3633 23.7424C14.3633 18.3618 18.7591 14 24.1818 14C29.6051 14 34 18.3618 34 23.7424ZM24.1818 15.5516C19.6298 15.5516 15.9271 19.226 15.9271 23.7424C15.9271 25.5347 16.5113 27.1944 17.4996 28.5447L16.4682 31.5867L19.6404 30.5784C20.9438 31.4342 22.5051 31.9333 24.182 31.9333C28.7333 31.9333 32.4367 28.2593 32.4367 23.7429C32.4367 19.2264 28.7336 15.5516 24.1818 15.5516ZM29.1398 25.9862C29.0791 25.8869 28.9189 25.8269 28.6784 25.7076C28.4376 25.5882 27.254 25.0102 27.034 24.9309C26.8133 24.8513 26.6524 24.8113 26.4922 25.0502C26.332 25.2893 25.8707 25.8269 25.73 25.9862C25.5896 26.146 25.4493 26.166 25.2084 26.0464C24.968 25.9271 24.1927 25.6747 23.2733 24.8613C22.558 24.2284 22.0749 23.4471 21.9344 23.2078C21.7942 22.9689 21.9198 22.8398 22.04 22.7209C22.1484 22.6138 22.2809 22.442 22.4011 22.3027C22.5218 22.1631 22.5618 22.0638 22.6416 21.9042C22.7222 21.7449 22.682 21.6056 22.6216 21.4858C22.5616 21.3664 22.0798 20.1913 21.8793 19.7131C21.6789 19.2353 21.4787 19.3149 21.338 19.3149C21.1978 19.3149 21.0371 19.2949 20.8767 19.2949C20.7162 19.2949 20.4553 19.3547 20.2347 19.5936C20.0142 19.8327 19.3927 20.4104 19.3927 21.5853C19.3927 22.7604 20.2547 23.8958 20.3753 24.0549C20.4956 24.214 22.0398 26.7038 24.4864 27.66C26.9333 28.6158 26.9333 28.2969 27.3747 28.2569C27.8156 28.2171 28.7982 27.6793 28.9996 27.122C29.1996 26.5638 29.1996 26.0858 29.1398 25.9862Z" fill="#FA6400"/>
</g>
<defs>
<clipPath id="clip0_19_12256">
<rect width="20" height="20" fill="white" transform="translate(14 14)"/>
</clipPath>
</defs>
</svg>
