<svg width="25" height="24" viewBox="0 0 25 24" fill="none" xmlns="http://www.w3.org/2000/svg">
<g id="vuesax/bold/document-upload">
<g id="document-upload">
<path id="Vector" d="M21 10.19H18.11C15.74 10.19 13.81 8.26 13.81 5.89V3C13.81 2.45 13.36 2 12.81 2H8.57C5.49 2 3 4 3 7.57V16.43C3 20 5.49 22 8.57 22H16.43C19.51 22 22 20 22 16.43V11.19C22 10.64 21.55 10.19 21 10.19ZM12.03 13.53C11.88 13.68 11.69 13.75 11.5 13.75C11.31 13.75 11.12 13.68 10.97 13.53L10.25 12.81V17C10.25 17.41 9.91 17.75 9.5 17.75C9.09 17.75 8.75 17.41 8.75 17V12.81L8.03 13.53C7.74 13.82 7.26 13.82 6.97 13.53C6.68 13.24 6.68 12.76 6.97 12.47L8.97 10.47C9.04 10.41 9.11 10.36 9.19 10.32C9.21 10.31 9.24 10.3 9.26 10.29C9.32 10.27 9.38 10.26 9.45 10.25C9.48 10.25 9.5 10.25 9.53 10.25C9.61 10.25 9.69 10.27 9.77 10.3C9.78 10.3 9.78 10.3 9.79 10.3C9.87 10.33 9.95 10.39 10.01 10.45C10.02 10.46 10.03 10.46 10.03 10.47L12.03 12.47C12.32 12.76 12.32 13.24 12.03 13.53Z" fill="white"/>
<path id="Vector_2" d="M17.9297 8.81048C18.8797 8.82048 20.1997 8.82048 21.3297 8.82048C21.8997 8.82048 22.1997 8.15048 21.7997 7.75048C20.3597 6.30048 17.7797 3.69048 16.2997 2.21048C15.8897 1.80048 15.1797 2.08048 15.1797 2.65048V6.14048C15.1797 7.60048 16.4197 8.81048 17.9297 8.81048Z" fill="white"/>
</g>
</g>
</svg>
