<svg width="56" height="56" viewBox="0 0 56 56" fill="none" xmlns="http://www.w3.org/2000/svg">
<path d="M6.66602 28.0003C6.66602 16.2183 16.2173 6.66699 27.9993 6.66699C39.7814 6.66699 49.3327 16.2183 49.3327 28.0003C49.3327 39.7824 39.7814 49.3337 27.9993 49.3337C16.2173 49.3337 6.66602 39.7824 6.66602 28.0003Z" fill="#FA6400" fill-opacity="0.1"/>
<path d="M33 18.4297H23C20 18.4297 18 20.4297 18 23.4297V29.4297C18 32.4297 20 34.4297 23 34.4297V36.5597C23 37.3597 23.89 37.8397 24.55 37.3897L29 34.4297H33C36 34.4297 38 32.4297 38 29.4297V23.4297C38 20.4297 36 18.4297 33 18.4297ZM28 30.5997C27.58 30.5997 27.25 30.2597 27.25 29.8497C27.25 29.4397 27.58 29.0997 28 29.0997C28.42 29.0997 28.75 29.4397 28.75 29.8497C28.75 30.2597 28.42 30.5997 28 30.5997ZM29.26 26.4497C28.87 26.7097 28.75 26.8797 28.75 27.1597V27.3697C28.75 27.7797 28.41 28.1197 28 28.1197C27.59 28.1197 27.25 27.7797 27.25 27.3697V27.1597C27.25 25.9997 28.1 25.4297 28.42 25.2097C28.79 24.9597 28.91 24.7897 28.91 24.5297C28.91 24.0297 28.5 23.6197 28 23.6197C27.5 23.6197 27.09 24.0297 27.09 24.5297C27.09 24.9397 26.75 25.2797 26.34 25.2797C25.93 25.2797 25.59 24.9397 25.59 24.5297C25.59 23.1997 26.67 22.1197 28 22.1197C29.33 22.1197 30.41 23.1997 30.41 24.5297C30.41 25.6697 29.57 26.2397 29.26 26.4497Z" fill="#FA6400"/>
</svg>
