<svg width="48" height="48" viewBox="0 0 48 48" fill="none" xmlns="http://www.w3.org/2000/svg">
<circle cx="24" cy="24.0005" r="24" fill="#FA6400" fill-opacity="0.05"/>
<circle cx="24" cy="24.0005" r="23.6571" stroke="#FA6400" stroke-opacity="0.2" stroke-width="0.685714"/>
<path d="M32.3334 24.5165V26.2332C32.3334 26.6998 31.95 27.0832 31.475 27.0832H29.8667C28.9667 27.0832 28.1417 26.4248 28.0667 25.5248C28.0167 24.9998 28.2167 24.5082 28.5667 24.1665C28.875 23.8498 29.3 23.6665 29.7667 23.6665H31.475C31.95 23.6665 32.3334 24.0498 32.3334 24.5165Z" fill="#FA6400"/>
<path d="M26.8165 25.6333C26.7415 24.7583 27.0582 23.9 27.6915 23.275C28.2248 22.7333 28.9665 22.4167 29.7665 22.4167H30.2415C30.4748 22.4167 30.6665 22.225 30.6332 21.9917C30.4082 20.375 29.0082 19.125 27.3332 19.125H18.9998C17.1582 19.125 15.6665 20.6167 15.6665 22.4583V28.2917C15.6665 30.1333 17.1582 31.625 18.9998 31.625H27.3332C29.0165 31.625 30.4082 30.375 30.6332 28.7583C30.6665 28.525 30.4748 28.3333 30.2415 28.3333H29.8665C28.2832 28.3333 26.9498 27.15 26.8165 25.6333ZM24.8332 23.9167H19.8332C19.4915 23.9167 19.2082 23.6417 19.2082 23.2917C19.2082 22.9417 19.4915 22.6667 19.8332 22.6667H24.8332C25.1748 22.6667 25.4582 22.95 25.4582 23.2917C25.4582 23.6333 25.1748 23.9167 24.8332 23.9167Z" fill="#FA6400"/>
<path d="M25.8419 17.3167C26.0585 17.5417 25.8669 17.875 25.5502 17.875H19.0252C18.1169 17.875 17.2669 18.1417 16.5585 18.6C16.2335 18.8083 15.7919 18.5833 15.9502 18.225C16.4169 17.1333 17.5085 16.375 18.7669 16.375H23.4502C24.4169 16.375 25.2752 16.7167 25.8419 17.3167Z" fill="#FA6400"/>
</svg>
