<svg width="25" height="24" viewBox="0 0 25 24" fill="none" xmlns="http://www.w3.org/2000/svg">
<g id="vuesax/bulk/signpost">
<g id="signpost">
<path id="Vector" d="M19.4698 3.75V7.25C19.4698 8.22 18.6898 9 17.7198 9H9.45987C9.06987 9 8.67985 8.85999 8.36985 8.62L6.17984 6.87C5.30984 6.17 5.30984 4.83 6.17984 4.13L8.36985 2.38C8.67985 2.14 9.06987 2 9.45987 2H17.7198C18.6898 2 19.4698 2.78 19.4698 3.75Z" fill="#737373"/>
<path id="Vector_2" d="M18.8408 16.87L16.6608 18.62C16.3508 18.86 15.9608 19 15.5608 19H7.30078C6.33078 19 5.55078 18.22 5.55078 17.25V13.75C5.55078 12.78 6.33078 12 7.30078 12H15.5608C15.9608 12 16.3508 12.14 16.6608 12.38L18.8408 14.13C19.7208 14.83 19.7208 16.17 18.8408 16.87Z" fill="#737373"/>
<path id="Vector_3" opacity="0.4" d="M13.25 9H11.75V12H13.25V9Z" fill="#737373"/>
<path id="Vector_4" opacity="0.4" d="M16.25 22C16.25 22.41 15.91 22.75 15.5 22.75H9.5C9.09 22.75 8.75 22.41 8.75 22C8.75 21.59 9.09 21.25 9.5 21.25H11.75V19H13.25V21.25H15.5C15.91 21.25 16.25 21.59 16.25 22Z" fill="#737373"/>
</g>
</g>
</svg>
