<svg width="48" height="48" viewBox="0 0 48 48" fill="none" xmlns="http://www.w3.org/2000/svg">
<circle cx="24" cy="24" r="24" fill="#FA6400" fill-opacity="0.05"/>
<circle cx="24" cy="24" r="23.6571" stroke="#FA6400" stroke-opacity="0.2" stroke-width="0.685714"/>
<path d="M27.4915 15.667H20.5082C17.4748 15.667 15.6665 17.4753 15.6665 20.5087V27.4837C15.6665 30.5253 17.4748 32.3337 20.5082 32.3337H27.4832C30.5165 32.3337 32.3248 30.5253 32.3248 27.492V20.5087C32.3332 17.4753 30.5248 15.667 27.4915 15.667ZM28.1665 27.092C28.1665 28.4003 27.4498 28.7087 26.5832 27.7753C26.1832 27.3503 25.5665 27.3837 25.2165 27.8503L24.7248 28.5087C24.3332 29.0337 23.6832 29.0337 23.2915 28.5087L22.7915 27.842C22.4415 27.3753 21.8248 27.342 21.4248 27.767C20.5498 28.7003 19.8332 28.392 19.8332 27.092V21.567C19.8332 19.592 20.2998 19.1003 22.1498 19.1003H25.8498C27.6998 19.1003 28.1665 19.592 28.1665 21.567V27.092Z" fill="#FA6400"/>
</svg>
