<svg width="48" height="48" viewBox="0 0 48 48" fill="none" xmlns="http://www.w3.org/2000/svg">
<circle cx="24" cy="24.0005" r="24" fill="#FA6400" fill-opacity="0.05"/>
<circle cx="24" cy="24.0005" r="23.6571" stroke="#FA6400" stroke-opacity="0.2" stroke-width="0.685714"/>
<path d="M21.9075 19.8335H19.1668C18.2334 19.8335 17.7664 19.8335 17.4098 20.0152C17.0962 20.1749 16.8414 20.4297 16.6817 20.7433C16.5 21.0998 16.5 21.5669 16.5 22.5003V27.167C16.5 28.1004 16.5 28.5665 16.6817 28.923C16.8414 29.2366 17.0962 29.4922 17.4098 29.652C17.766 29.8335 18.2325 29.8335 19.1641 29.8335H28.8359C29.7675 29.8335 30.2333 29.8335 30.5895 29.652C30.9031 29.4922 31.1587 29.2366 31.3185 28.923C31.5 28.5668 31.5 28.101 31.5 27.1694V22.4976C31.5 21.566 31.5 21.0995 31.3185 20.7433C31.1587 20.4297 30.9031 20.1749 30.5895 20.0152C30.233 19.8335 29.7669 19.8335 28.8335 19.8335H26.0924M21.9075 19.8335H21.959M21.9075 19.8335C21.9179 19.8335 21.9289 19.8335 21.9405 19.8335L21.959 19.8335M21.9075 19.8335C21.819 19.8335 21.7695 19.833 21.7303 19.8286C21.2407 19.7738 20.9048 19.3077 21.0076 18.8259C21.0172 18.781 21.0361 18.7243 21.0736 18.6119L21.0752 18.6072C21.118 18.4789 21.1394 18.4147 21.163 18.3581C21.4049 17.7784 21.9527 17.3842 22.5791 17.338C22.6403 17.3335 22.7075 17.3335 22.8428 17.3335H25.1572C25.2924 17.3335 25.3602 17.3335 25.4214 17.338C26.0478 17.3842 26.595 17.7784 26.8369 18.3581C26.8605 18.4147 26.882 18.4788 26.9248 18.6071C26.9633 18.7227 26.9826 18.7805 26.9923 18.8259C27.0951 19.3078 26.7598 19.7738 26.2702 19.8286C26.231 19.833 26.1809 19.8335 26.0924 19.8335M21.959 19.8335H26.0408M26.0408 19.8335H26.0924M26.0408 19.8335L26.0593 19.8335C26.0709 19.8335 26.0819 19.8335 26.0924 19.8335M24 27.3335C22.6193 27.3335 21.5 26.2142 21.5 24.8335C21.5 23.4528 22.6193 22.3335 24 22.3335C25.3807 22.3335 26.5 23.4528 26.5 24.8335C26.5 26.2142 25.3807 27.3335 24 27.3335Z" stroke="#FA6400" stroke-width="1.66667" stroke-linecap="round" stroke-linejoin="round"/>
</svg>
