<svg width="48" height="48" viewBox="0 0 48 48" fill="none" xmlns="http://www.w3.org/2000/svg">
<circle cx="24" cy="24" r="24" fill="#FA6400" fill-opacity="0.05"/>
<circle cx="24" cy="24" r="23.6571" stroke="#FA6400" stroke-opacity="0.2" stroke-width="0.685714"/>
<path d="M26.6832 19.458H18.8165C18.5832 19.458 18.3665 19.4663 18.1665 19.4747C16.1915 19.5913 15.6665 20.3163 15.6665 22.5663V23.0497C15.6665 23.508 16.0415 23.883 16.4998 23.883H28.9998C29.4582 23.883 29.8332 23.508 29.8332 23.0497V22.5663C29.8332 20.083 29.1998 19.458 26.6832 19.458Z" fill="#FA6400"/>
<path d="M16.4998 25.1338C16.0415 25.1338 15.6665 25.5088 15.6665 25.9671V28.3921C15.6665 30.8755 16.2998 31.5005 18.8165 31.5005H26.6832C29.1582 31.5005 29.8082 30.9005 29.8332 28.5255V25.9671C29.8332 25.5088 29.4582 25.1338 28.9998 25.1338H16.4998ZM19.7998 29.4671H18.3748C18.0332 29.4671 17.7498 29.1838 17.7498 28.8421C17.7498 28.5005 18.0332 28.2171 18.3748 28.2171H19.8082C20.1498 28.2171 20.4332 28.5005 20.4332 28.8421C20.4332 29.1838 20.1498 29.4671 19.7998 29.4671ZM24.4582 29.4671H21.5915C21.2498 29.4671 20.9665 29.1838 20.9665 28.8421C20.9665 28.5005 21.2498 28.2171 21.5915 28.2171H24.4582C24.7998 28.2171 25.0832 28.5005 25.0832 28.8421C25.0832 29.1838 24.8082 29.4671 24.4582 29.4671Z" fill="#FA6400"/>
<path d="M32.3329 25.1083V20.7417C32.3329 18.1333 30.8412 17 28.5912 17H21.1495C20.5162 17 19.9495 17.0917 19.4495 17.2833C19.0579 17.425 18.7079 17.6333 18.4245 17.9083C18.2745 18.05 18.3912 18.2833 18.6079 18.2833H27.6662C29.5412 18.2833 31.0579 19.8 31.0579 21.675V27.65C31.0579 27.8583 31.2829 27.975 31.4329 27.825C32.0079 27.2167 32.3329 26.325 32.3329 25.1083Z" fill="#FA6400"/>
</svg>
