<svg width="48" height="48" viewBox="0 0 48 48" fill="none" xmlns="http://www.w3.org/2000/svg">
<circle cx="24" cy="24" r="24" fill="#FA6400" fill-opacity="0.05"/>
<circle cx="24" cy="24" r="23.6571" stroke="#FA6400" stroke-opacity="0.2" stroke-width="0.685714"/>
<path d="M30.9961 16.1982C30.2878 15.4899 29.1391 15.4899 28.4308 16.1982L27.9535 16.6756C27.8131 16.8159 27.7345 17.0064 27.7345 17.2048C27.7345 17.4033 27.8131 17.5935 27.9535 17.7338L30.2666 20.0469C30.4069 20.1873 30.5971 20.2659 30.7956 20.2659C30.994 20.2659 31.1845 20.1873 31.3249 20.0469L31.8022 19.5696C32.5105 18.8613 32.5105 17.7126 31.8022 17.0043L30.9961 16.1982ZM25.8802 18.7489L16.0011 28.6279C15.7869 28.8422 15.6665 29.1328 15.6665 29.4357V31.8605C15.6665 32.1217 15.8784 32.3337 16.1397 32.3337H18.5644C18.8674 32.3337 19.158 32.2133 19.3723 31.999L29.2513 22.12L29.2516 22.1203C29.4838 21.8881 29.4838 21.5115 29.2516 21.2793L26.7212 18.7489C26.489 18.5167 26.1124 18.5167 25.8802 18.7489L25.8802 18.7489Z" fill="#FA6400"/>
</svg>
