<svg width="40" height="40" viewBox="0 0 40 40" fill="none" xmlns="http://www.w3.org/2000/svg">
<circle cx="20" cy="20" r="19.75" fill="#F5F5F5" stroke="#E5E5E5" stroke-width="0.5"/>
<path d="M14.464 30V22.804H12.28V21.012H14.464V18.716H12.28V16.924H14.464V10.008H17.376L20.036 16.924H23.34V10.008H25.552V16.924H27.736V18.716H25.552V21.012H27.736V22.804H25.552V30H22.612L19.952 22.804H16.648V30H14.464ZM16.648 21.012H19.28L18.44 18.716H16.592L16.648 21.012ZM23.34 26.052H23.452L23.368 22.804H22.192L23.34 26.052ZM16.592 16.924H17.768L16.592 13.452H16.48L16.592 16.924ZM21.52 21.012H23.396L23.34 18.716H20.68L21.52 21.012Z" fill="#191919"/>
</svg>
