<svg width="48" height="48" viewBox="0 0 48 48" fill="none" xmlns="http://www.w3.org/2000/svg">
<circle cx="24" cy="24" r="24" fill="#FA6400" fill-opacity="0.05"/>
<circle cx="24" cy="24" r="23.6571" stroke="#FA6400" stroke-opacity="0.2" stroke-width="0.685714"/>
<path d="M23.1665 27.458V29.708C23.1665 31.583 22.4165 32.333 20.5415 32.333H18.2915C16.4165 32.333 15.6665 31.583 15.6665 29.708V27.458C15.6665 25.583 16.4165 24.833 18.2915 24.833H20.5415C22.4165 24.833 23.1665 25.583 23.1665 27.458Z" fill="#FA6400"/>
<path d="M27.7333 15.667H21.1C18.5583 15.667 16.5 17.7253 16.5 20.267V22.7503C16.5 23.2087 16.875 23.5837 17.3333 23.5837H21.0833C22.925 23.5837 24.4167 25.0753 24.4167 26.917V30.667C24.4167 31.1253 24.7917 31.5003 25.25 31.5003H27.7333C30.6083 31.5003 32.3333 29.7837 32.3333 26.9003V20.267C32.3333 17.7253 30.275 15.667 27.7333 15.667ZM29.6333 22.3253C29.6333 22.667 29.35 22.9503 29.0083 22.9503C28.6667 22.9503 28.3833 22.667 28.3833 22.3253V20.492L25.275 23.6087C25.15 23.7337 24.9917 23.792 24.8333 23.792C24.675 23.792 24.5167 23.7337 24.3917 23.6087C24.15 23.367 24.15 22.967 24.3917 22.7253L27.5 19.6003H25.6667C25.3167 19.6003 25.0417 19.3253 25.0417 18.9753C25.0417 18.6337 25.3167 18.3503 25.6667 18.3503H29.0083C29.0833 18.3503 29.1583 18.3753 29.225 18.4003C29.25 18.4087 29.2667 18.417 29.2833 18.4253C29.3333 18.4503 29.375 18.4753 29.4167 18.517C29.4333 18.5253 29.45 18.542 29.4667 18.5587C29.5083 18.6087 29.5417 18.6587 29.575 18.717C29.575 18.7253 29.5833 18.7337 29.5833 18.742C29.6167 18.8087 29.625 18.8837 29.625 18.9587C29.6333 18.967 29.6333 18.967 29.6333 18.9753V22.3253Z" fill="#FA6400"/>
</svg>
